<?xml version="1.0" standalone="no"?>
<!DOCTYPE svg PUBLIC "-//W3C//DTD SVG 20010904//EN"
 "http://www.w3.org/TR/2001/REC-SVG-20010904/DTD/svg10.dtd">
<svg version="1.0" xmlns="http://www.w3.org/2000/svg"
 width="512.000000pt" height="512.000000pt" viewBox="0 0 512.000000 512.000000"
 preserveAspectRatio="xMidYMid meet">

<g transform="translate(0.000000,512.000000) scale(0.100000,-0.100000)"
fill="#000000" stroke="none">
<path d="M222 4134 c-99 -26 -174 -96 -207 -195 -13 -39 -15 -206 -13 -1399
l3 -1355 27 -51 c15 -28 48 -70 73 -92 90 -79 -132 -72 2470 -70 l2330 3 55
31 c64 36 122 107 142 173 10 37 13 298 13 1391 l0 1345 -22 47 c-30 66 -95
132 -156 159 l-52 24 -2305 2 c-1976 2 -2313 0 -2358 -13z m624 -1142 c52 -26
90 -71 104 -120 5 -20 10 -116 10 -213 l0 -177 31 -58 31 -59 -59 -52 c-32
-29 -65 -53 -75 -53 -9 0 -34 20 -56 45 l-39 44 -23 -24 c-53 -57 -169 -87
-250 -65 -97 26 -143 90 -144 200 -1 87 31 152 98 197 56 38 91 49 209 64 l87
12 0 38 c0 71 -34 109 -98 109 -40 -1 -71 -22 -96 -66 -23 -42 -32 -44 -140
-28 -38 6 -38 6 -33 45 10 76 70 140 164 175 59 22 226 14 279 -14z m700 9
c37 -17 63 -41 90 -87 9 -16 12 -14 32 17 76 123 286 109 336 -23 14 -37 16
-86 14 -343 l-3 -300 -85 0 -85 0 -5 260 c-4 228 -7 264 -23 288 -29 44 -110
35 -139 -16 -9 -15 -14 -97 -18 -277 l-5 -255 -85 0 -85 0 -7 55 c-4 30 -7
145 -6 255 1 215 -6 251 -48 261 -40 10 -77 0 -98 -29 -20 -27 -21 -43 -24
-280 -2 -180 -7 -254 -15 -259 -20 -13 -152 -9 -165 4 -14 14 -17 694 -3 716
5 9 30 12 87 10 l79 -3 3 -48 3 -48 29 40 c55 76 143 100 226 62z m1033 4 c61
-21 99 -51 123 -98 20 -38 22 -61 26 -242 4 -191 5 -202 29 -243 13 -23 23
-49 21 -56 -5 -19 -106 -106 -125 -106 -17 0 -83 65 -83 82 0 5 -17 -4 -37
-20 -68 -53 -102 -65 -183 -66 -50 0 -85 5 -105 16 -126 67 -144 254 -36 359
56 54 108 74 233 90 l88 12 0 47 c0 62 -22 90 -75 96 -52 6 -85 -12 -111 -61
-22 -43 -23 -43 -132 -29 -53 7 -60 21 -37 79 21 56 92 120 154 139 62 19 198
20 250 1z m1303 -13 c117 -52 188 -188 188 -362 0 -183 -92 -333 -227 -370
-58 -17 -159 -8 -208 18 -173 89 -231 392 -116 597 71 126 228 177 363 117z
m753 -2 c80 -50 94 -119 95 -471 0 -191 -3 -239 -14 -248 -9 -8 -43 -11 -93
-9 l-78 3 -5 260 c-4 222 -7 265 -22 287 -36 54 -114 37 -141 -31 -14 -34 -17
-81 -17 -269 0 -164 -3 -231 -12 -240 -17 -17 -152 -16 -167 2 -8 9 -11 114
-9 367 l3 354 85 0 85 0 5 -55 c4 -42 7 -50 13 -33 36 100 175 143 272 83z
m-1271 14 c12 -5 16 -21 16 -68 l0 -61 -125 -178 c-69 -98 -125 -180 -125
-182 0 -2 26 -7 58 -11 87 -10 179 -42 197 -67 19 -28 21 -130 1 -146 -10 -9
-24 -7 -58 8 -127 54 -259 54 -396 -1 -68 -27 -74 -20 -70 82 l3 75 136 195
136 195 -101 2 c-152 4 -146 1 -146 82 0 46 4 71 13 74 18 8 442 8 461 1z
m-110 -788 c19 -8 37 -23 41 -35 8 -26 -11 -129 -36 -196 -35 -93 -122 -196
-145 -172 -3 3 11 52 30 109 38 111 47 181 27 201 -9 8 -56 12 -162 10 -82 -1
-149 2 -149 7 0 16 62 53 118 71 71 23 227 25 276 5z m-2163 -70 c227 -121
469 -199 749 -243 159 -24 481 -24 640 0 148 24 353 76 471 122 103 40 132 41
137 8 4 -29 -61 -76 -203 -147 -538 -266 -1198 -222 -1696 113 -137 92 -205
152 -196 174 3 9 8 17 11 17 2 0 41 -20 87 -44z"/>
<path d="M664 2609 c-42 -12 -82 -54 -90 -94 -9 -50 11 -101 46 -115 80 -33
150 47 150 173 l0 47 -37 -1 c-21 0 -52 -5 -69 -10z"/>
<path d="M2425 2605 c-60 -21 -85 -56 -85 -116 0 -40 5 -55 26 -76 21 -21 32
-24 61 -20 68 11 103 67 103 167 l0 60 -32 0 c-18 -1 -51 -7 -73 -15z"/>
<path d="M3708 2853 c-33 -38 -42 -71 -46 -173 -5 -118 9 -213 36 -249 41 -55
108 -47 146 18 25 43 35 226 17 313 -17 80 -41 108 -95 108 -28 0 -48 -6 -58
-17z"/>
</g>
</svg>
