<?xml version="1.0" standalone="no"?>
<!DOCTYPE svg PUBLIC "-//W3C//DTD SVG 20010904//EN"
 "http://www.w3.org/TR/2001/REC-SVG-20010904/DTD/svg10.dtd">
<svg version="1.0" xmlns="http://www.w3.org/2000/svg"
 width="512.000000pt" height="512.000000pt" viewBox="0 0 512.000000 512.000000"
 preserveAspectRatio="xMidYMid meet">

<g transform="translate(0.000000,512.000000) scale(0.100000,-0.100000)"
fill="#000000" stroke="none">
<path d="M475 3015 c-81 -29 -115 -94 -115 -222 l0 -73 -50 0 -50 0 0 -75 0
-75 50 0 50 0 0 -235 0 -235 95 0 95 0 2 233 3 232 63 3 c50 2 62 6 63 20 0 9
4 43 8 75 l7 57 -73 0 -73 0 0 59 c0 78 13 91 91 91 l59 0 0 80 0 80 -92 0
c-54 -1 -110 -7 -133 -15z"/>
<path d="M2525 2999 c-27 -5 -60 -12 -72 -14 l-23 -5 0 -434 0 -433 94 -11
c248 -31 387 3 438 105 22 45 23 59 23 228 0 163 -2 183 -20 215 -35 59 -75
75 -190 75 -55 0 -112 -3 -127 -8 l-28 -7 0 150 c0 171 9 157 -95 139z m256
-450 c19 -19 20 -30 17 -141 -3 -112 -5 -121 -27 -139 -17 -14 -39 -19 -87
-19 l-64 0 0 148 c0 145 1 149 23 160 40 19 115 14 138 -9z"/>
<path d="M4385 2999 c-27 -5 -60 -12 -72 -14 l-23 -5 0 -440 0 -440 90 0 90 0
0 140 c0 77 3 140 8 140 4 0 45 -63 91 -140 l83 -140 104 0 103 0 -96 160 -95
159 91 144 c50 79 91 147 91 150 0 4 -45 7 -99 7 l-99 0 -82 -130 c-45 -71
-86 -132 -91 -135 -5 -4 -9 105 -9 274 0 317 9 287 -85 270z"/>
<path d="M1442 2715 c-58 -18 -108 -58 -134 -108 -19 -36 -23 -62 -26 -171 -3
-82 0 -145 8 -170 41 -141 170 -197 383 -166 l87 12 0 80 c0 72 -2 79 -17 73
-10 -3 -63 -9 -118 -12 -92 -5 -102 -4 -127 17 -28 21 -28 23 -28 141 0 152 7
161 120 161 3 0 42 -3 88 -6 l82 -7 0 74 0 75 -63 11 c-84 15 -202 13 -255 -4z"/>
<path d="M1960 2710 c-65 -22 -112 -70 -130 -134 -8 -28 -11 -93 -8 -183 3
-135 4 -141 33 -189 46 -74 115 -106 242 -111 56 -2 130 2 173 9 l75 13 3 79
c3 78 3 78 -20 72 -13 -4 -77 -9 -143 -13 -113 -5 -122 -4 -147 17 -21 16 -28
30 -28 56 l0 34 175 0 175 0 0 91 c0 113 -14 162 -60 210 -64 67 -222 90 -340
49z m190 -140 c12 -12 20 -33 20 -55 l0 -35 -80 0 -80 0 0 35 c0 48 29 75 80
75 27 0 47 -7 60 -20z"/>
<path d="M3225 2721 c-75 -18 -138 -74 -161 -143 -12 -38 -15 -79 -12 -186 4
-154 19 -199 81 -246 81 -62 250 -71 355 -20 92 45 121 114 122 290 0 179 -45
264 -160 298 -55 16 -171 20 -225 7z m174 -177 c18 -23 21 -41 21 -136 0 -102
-1 -110 -25 -133 -32 -33 -98 -35 -132 -3 -22 20 -23 29 -23 140 0 142 9 158
89 158 42 0 53 -4 70 -26z"/>
<path d="M3829 2717 c-70 -26 -107 -56 -133 -109 -24 -48 -26 -62 -26 -187 0
-165 10 -203 64 -257 52 -53 104 -69 223 -68 81 0 98 3 149 30 50 25 63 38 87
86 25 48 30 71 34 159 9 187 -24 278 -121 328 -41 21 -66 26 -145 28 -63 2
-109 -1 -132 -10z m182 -166 c23 -18 24 -25 24 -141 0 -116 -1 -123 -24 -141
-32 -26 -100 -26 -129 1 -20 19 -22 30 -22 140 0 107 2 122 20 140 27 27 99
27 131 1z"/>
<path d="M760 2698 c0 -12 -3 -47 -6 -75 l-7 -53 89 0 c99 -1 163 -12 175 -32
5 -7 9 -30 9 -50 l0 -38 -92 0 c-155 0 -216 -30 -237 -117 -27 -104 19 -202
108 -232 56 -19 88 -15 229 25 16 5 22 2 22 -10 0 -13 13 -16 80 -16 l80 0 0
223 c0 232 -6 284 -37 326 -40 54 -83 66 -255 69 l-158 4 0 -24z m258 -415
c-3 -36 -6 -39 -48 -49 -55 -13 -82 -5 -94 29 -15 42 6 57 81 57 l64 0 -3 -37z"/>
</g>
</svg>
