<?xml version="1.0" standalone="no"?>
<!DOCTYPE svg PUBLIC "-//W3C//DTD SVG 20010904//EN"
 "http://www.w3.org/TR/2001/REC-SVG-20010904/DTD/svg10.dtd">
<svg version="1.0" xmlns="http://www.w3.org/2000/svg"
 width="512.000000pt" height="512.000000pt" viewBox="0 0 512.000000 512.000000"
 preserveAspectRatio="xMidYMid meet">

<g transform="translate(0.000000,512.000000) scale(0.100000,-0.100000)"
fill="#000000" stroke="none">
<path d="M423 5106 c-198 -48 -371 -227 -412 -424 -16 -75 -16 -4169 0 -4244
42 -203 224 -385 427 -427 37 -8 660 -11 2125 -11 2283 0 2135 -4 2261 62 91
48 195 156 239 248 19 41 40 99 46 128 16 75 16 4169 0 4244 -41 197 -215 377
-410 423 -56 13 -322 15 -2144 14 -1643 -1 -2091 -3 -2132 -13z m957 -821
c149 -53 251 -213 237 -374 l-6 -66 568 -441 567 -441 50 35 c78 54 201 110
297 134 l87 23 0 205 -1 205 -40 25 c-90 55 -142 155 -143 272 0 66 5 85 33
142 116 236 457 237 579 1 36 -71 42 -179 13 -256 -24 -62 -87 -141 -132 -165
l-29 -15 0 -207 0 -208 73 -17 c151 -36 289 -112 410 -227 286 -269 365 -699
193 -1050 -120 -245 -332 -419 -595 -487 -116 -30 -294 -35 -406 -10 -101 22
-222 71 -301 122 l-69 44 -166 -165 -166 -166 5 -72 c4 -64 1 -81 -23 -135
-51 -112 -147 -175 -270 -175 -119 0 -210 57 -262 162 -23 47 -28 70 -28 132
1 125 59 215 172 267 45 21 65 24 128 21 l75 -3 170 170 169 170 -35 59 c-91
153 -129 305 -122 495 6 153 25 229 93 368 l50 102 -559 434 -558 435 -47 -21
c-67 -31 -206 -30 -275 1 -108 49 -182 138 -212 251 -49 193 82 400 280 441
51 11 143 4 196 -15z"/>
<path d="M3203 2705 c-229 -62 -381 -288 -346 -516 21 -136 98 -253 215 -329
127 -83 303 -94 440 -28 126 61 204 149 248 279 18 53 21 81 18 165 -3 93 -6
107 -42 178 -100 204 -321 308 -533 251z"/>
</g>
</svg>
