<?xml version="1.0" standalone="no"?>
<!DOCTYPE svg PUBLIC "-//W3C//DTD SVG 20010904//EN"
 "http://www.w3.org/TR/2001/REC-SVG-20010904/DTD/svg10.dtd">
<svg version="1.0" xmlns="http://www.w3.org/2000/svg"
 width="512.000000pt" height="512.000000pt" viewBox="0 0 512.000000 512.000000"
 preserveAspectRatio="xMidYMid meet">

<g transform="translate(0.000000,512.000000) scale(0.100000,-0.100000)"
fill="#000000" stroke="none">
<path d="M3055 3470 l-870 -5 -35 -22 c-20 -12 -47 -41 -60 -65 l-25 -43 -3
-745 c-2 -538 0 -760 8 -798 16 -73 68 -126 139 -141 74 -16 2689 -15 2763 0
64 14 120 65 137 124 15 56 15 1514 0 1570 -17 59 -73 110 -137 124 -55 11
-148 11 -1917 1z m735 -711 l0 -161 34 30 c72 63 191 70 268 16 119 -84 144
-310 49 -440 -43 -58 -118 -96 -189 -96 -72 0 -107 14 -149 58 l-33 35 0 -40
0 -41 -60 0 -60 0 0 400 0 400 70 0 70 0 0 -161z m-810 61 l0 -60 -103 0 -104
0 -6 -187 c-4 -104 -7 -248 -7 -320 l0 -133 -70 0 -70 0 0 320 0 320 -110 0
-110 0 0 60 0 60 290 0 290 0 0 -60z m1651 -152 c47 -13 106 -68 126 -115 21
-51 34 -133 27 -170 l-6 -33 -183 0 -184 0 10 -32 c11 -41 54 -85 96 -99 30
-9 133 -3 203 13 8 2 18 -16 25 -44 l13 -47 -53 -16 c-30 -8 -92 -15 -142 -15
-76 0 -97 4 -141 26 -59 29 -96 69 -125 133 -15 35 -18 61 -15 135 3 82 6 98
33 141 70 112 193 160 316 123z m-1481 -177 c0 -197 7 -234 51 -256 36 -19 53
-19 94 1 57 27 65 59 65 258 l0 176 70 0 70 0 0 -207 c0 -115 3 -238 7 -275
l6 -68 -67 0 -66 0 0 35 c0 38 -14 46 -29 16 -28 -52 -173 -81 -239 -47 -40
20 -79 68 -93 114 -6 20 -14 126 -16 235 l-5 197 76 0 76 0 0 -179z"/>
<path d="M3864 2554 c-16 -8 -38 -29 -48 -46 -25 -41 -32 -150 -14 -203 25
-76 116 -108 186 -65 42 26 64 79 64 155 0 76 -22 129 -64 155 -39 24 -81 25
-124 4z"/>
<path d="M4477 2561 c-35 -23 -54 -49 -58 -81 l-4 -25 118 -3 117 -3 0 32 c0
47 -56 99 -106 99 -22 0 -52 -8 -67 -19z"/>
<path d="M33 2818 c20 -35 74 -134 121 -221 l86 -158 0 -160 0 -159 70 0 70 0
0 161 0 160 114 197 c62 108 118 207 125 220 12 22 11 22 -66 22 l-78 0 -47
-103 c-26 -56 -62 -133 -79 -172 l-32 -70 -18 40 c-10 22 -45 99 -78 170 l-59
130 -82 3 -81 3 34 -63z"/>
<path d="M764 2670 c-58 -18 -126 -73 -156 -127 -59 -105 -47 -254 29 -342
101 -119 303 -124 413 -11 102 105 108 288 13 399 -51 60 -103 84 -193 87 -41
2 -89 -1 -106 -6z m147 -107 c71 -42 97 -196 48 -283 -54 -96 -171 -95 -218 3
-23 48 -29 155 -10 204 30 80 113 115 180 76z"/>
<path d="M1240 2492 c0 -253 24 -328 117 -368 73 -31 187 -5 233 53 l19 25 7
-41 7 -41 58 0 59 0 0 275 0 275 -69 0 -69 0 -4 -190 -3 -190 -31 -31 c-41
-40 -98 -49 -135 -21 -40 32 -49 83 -49 266 l0 166 -70 0 -70 0 0 -178z"/>
</g>
</svg>
