<?xml version="1.0" standalone="no"?>
<!DOCTYPE svg PUBLIC "-//W3C//DTD SVG 20010904//EN"
 "http://www.w3.org/TR/2001/REC-SVG-20010904/DTD/svg10.dtd">
<svg version="1.0" xmlns="http://www.w3.org/2000/svg"
 width="512.000000pt" height="512.000000pt" viewBox="0 0 512.000000 512.000000"
 preserveAspectRatio="xMidYMid meet">

<g transform="translate(0.000000,512.000000) scale(0.100000,-0.100000)"
fill="#000000" stroke="none">
<path d="M0 3103 c1 -47 22 -107 47 -135 10 -11 35 -29 55 -39 34 -17 63 -19
338 -19 165 0 300 -3 300 -8 0 -4 -153 -160 -341 -347 l-341 -340 5 -59 c6
-69 40 -119 103 -151 37 -19 62 -20 513 -23 l474 -4 -6 55 c-7 69 -27 108 -74
144 l-36 28 -314 3 c-172 2 -313 6 -313 10 0 4 153 160 341 347 l340 340 -3
57 c-5 71 -37 120 -98 151 -44 22 -52 22 -517 25 l-473 4 0 -39z"/>
<path d="M1600 3128 c-220 -22 -411 -180 -481 -398 -30 -91 -30 -249 0 -340
59 -182 195 -318 376 -376 112 -35 243 -35 352 1 240 81 393 293 393 545 0
151 -57 294 -157 396 -132 134 -295 192 -483 172z m213 -256 c64 -29 132 -95
164 -161 25 -49 28 -67 28 -151 0 -84 -3 -102 -28 -152 -35 -72 -110 -140
-185 -168 -80 -31 -205 -25 -277 12 -163 85 -235 283 -162 443 83 179 282 255
460 177z"/>
<path d="M2810 3129 c-132 -14 -239 -66 -343 -170 -101 -100 -167 -258 -167
-399 0 -207 138 -426 321 -513 97 -45 154 -58 258 -58 165 1 284 51 401 170
87 88 123 149 150 257 25 98 25 190 0 288 -27 108 -63 169 -150 257 -73 74
-144 120 -232 148 -55 18 -165 27 -238 20z m211 -257 c70 -31 125 -86 161
-160 30 -60 33 -76 33 -152 0 -76 -3 -92 -33 -152 -67 -136 -203 -207 -357
-187 -109 14 -209 89 -262 197 -24 49 -28 69 -28 142 0 73 4 93 28 142 53 108
153 183 262 197 65 8 142 -2 196 -27z"/>
<path d="M3903 3128 c-37 -4 -89 -20 -128 -38 -62 -30 -68 -31 -85 -15 -25 22
-114 55 -150 55 l-30 0 0 -573 0 -573 60 7 c42 5 71 15 95 33 69 53 69 57 75
401 6 338 8 351 66 409 47 46 96 66 164 66 70 0 118 -21 167 -72 55 -57 57
-68 63 -403 6 -345 6 -348 76 -401 27 -21 50 -29 94 -32 l59 -4 3 373 c3 409
4 413 64 473 47 46 96 66 164 66 70 0 118 -21 167 -72 55 -57 57 -68 63 -403
6 -344 6 -348 75 -401 24 -18 53 -28 95 -33 l60 -7 0 371 c0 296 -3 382 -15
428 -56 213 -227 347 -445 347 -126 0 -221 -36 -311 -117 l-36 -33 -23 25
c-86 92 -238 140 -387 123z"/>
</g>
</svg>
